<?xml version="1.0" standalone="no"?>
<!DOCTYPE svg PUBLIC "-//W3C//DTD SVG 20010904//EN"
 "http://www.w3.org/TR/2001/REC-SVG-20010904/DTD/svg10.dtd">
<svg version="1.0" xmlns="http://www.w3.org/2000/svg"
 width="1024.000000pt" height="1024.000000pt" viewBox="0 0 1024.000000 1024.000000"
 preserveAspectRatio="xMidYMid meet">
<metadata>
Created by potrace 1.14, written by Peter Selinger 2001-2017
</metadata>
<g transform="translate(0.000000,1024.000000) scale(0.100000,-0.100000)"
fill="#000000" stroke="none">
<path d="M702 7515 c-89 -28 -157 -95 -182 -181 -8 -29 -10 -626 -8 -2234 3
-2148 3 -2196 22 -2234 27 -53 80 -104 135 -130 l46 -21 4405 0 4405 0 45 21
c59 27 107 76 136 139 l24 50 0 2195 0 2195 -24 50 c-29 63 -77 112 -136 139
l-45 21 -4390 2 c-3665 1 -4397 -1 -4433 -12z m8758 -2395 l0 -2130 -4340 0
-4340 0 0 2130 0 2130 4340 0 4340 0 0 -2130z"/>
<path d="M6733 6174 c-132 -117 -267 -305 -338 -470 -20 -48 -51 -140 -68
-204 -29 -109 -30 -125 -31 -320 -1 -226 6 -283 59 -446 40 -123 84 -212 163
-330 64 -94 176 -222 241 -273 l39 -31 68 56 c38 31 71 58 73 60 2 2 -28 38
-68 79 -247 261 -351 517 -351 870 0 358 100 603 357 876 36 38 64 71 62 72
-2 2 -31 26 -64 53 -33 28 -65 53 -71 57 -5 3 -38 -19 -71 -49z"/>
<path d="M7321 6169 l-72 -61 73 -76 c245 -258 348 -513 348 -867 0 -352 -100
-605 -341 -859 -45 -48 -80 -88 -78 -89 2 -2 35 -29 72 -60 l68 -57 27 19 c67
48 212 214 284 327 82 128 157 326 183 484 19 122 19 348 0 470 -19 111 -69
270 -119 367 -75 150 -228 348 -335 432 l-38 30 -72 -60z"/>
<path d="M4650 6189 c-182 -18 -315 -111 -369 -255 -24 -62 -41 -158 -41 -226
l0 -48 -92 0 c-51 0 -123 -3 -160 -7 l-68 -6 0 -98 0 -99 160 0 160 0 2 -467
3 -468 133 -3 132 -3 0 471 0 470 220 0 220 0 0 105 0 105 -220 0 -220 0 0 61
c0 131 47 213 142 245 62 20 227 15 297 -10 24 -9 49 -16 56 -16 15 0 68 181
57 192 -16 16 -148 48 -217 54 -38 3 -81 6 -95 8 -14 1 -59 -1 -100 -5z"/>
<path d="M2412 5865 c1 -168 1 -305 -1 -305 -2 0 -19 14 -39 31 -91 81 -250
118 -373 89 -240 -57 -393 -268 -406 -560 -13 -297 99 -520 304 -601 49 -20
76 -24 174 -24 113 0 116 1 190 37 42 21 96 56 122 78 52 46 46 51 64 -50 l9
-45 109 0 110 0 3 828 2 827 -136 0 -136 0 4 -305z m-110 -430 c29 -15 65 -38
81 -53 l27 -26 0 -255 0 -254 -43 -42 c-120 -115 -303 -127 -399 -27 -70 72
-98 162 -98 310 0 195 78 326 220 373 47 16 156 2 212 -26z"/>
<path d="M2730 6060 l0 -110 195 0 195 0 0 -555 c0 -372 4 -571 11 -607 26
-122 98 -215 204 -265 57 -27 67 -28 205 -28 125 0 156 3 223 24 43 13 80 27
82 31 2 3 -10 49 -26 102 l-30 96 -60 -19 c-36 -11 -90 -19 -133 -19 -98 0
-151 27 -186 95 l-25 49 -3 658 -3 658 -325 0 -324 0 0 -110z"/>
<path d="M8285 5731 c-45 -20 -91 -69 -112 -118 -19 -47 -16 -150 6 -199 56
-123 217 -168 335 -94 144 92 137 322 -13 404 -60 32 -154 36 -216 7z"/>
<path d="M5567 5676 c-76 -22 -152 -65 -227 -128 -78 -65 -74 -67 -86 45 l-6
67 -114 0 -114 0 2 -572 3 -573 133 -3 132 -3 0 395 0 394 58 51 c31 28 81 63
111 78 101 50 228 41 286 -21 56 -60 58 -76 62 -504 l5 -393 131 3 132 3 0
415 c0 362 -2 423 -17 477 -36 130 -93 204 -190 249 -53 23 -79 28 -158 31
-59 1 -113 -3 -143 -11z"/>
<path d="M8350 4941 c-120 -25 -191 -129 -169 -247 17 -90 93 -154 196 -162
l53 -4 -6 -42 c-17 -113 -97 -213 -223 -280 -39 -20 -71 -39 -71 -40 0 -2 16
-38 35 -80 l34 -76 53 21 c127 49 246 143 309 240 116 182 119 482 5 607 -45
51 -141 78 -216 63z"/>
</g>
</svg>
