<?xml version="1.0" encoding="UTF-8"?>
<!DOCTYPE svg PUBLIC "-//W3C//DTD SVG 1.1//EN" "http://www.w3.org/Graphics/SVG/1.1/DTD/svg11.dtd">
<!-- Creator: CorelDRAW X8 -->
<svg xmlns="http://www.w3.org/2000/svg" xml:space="preserve" width="529px" height="385px" version="1.1" style="shape-rendering:geometricPrecision; text-rendering:geometricPrecision; image-rendering:optimizeQuality; fill-rule:evenodd; clip-rule:evenodd"
viewBox="0 0 447 325"
 xmlns:xlink="http://www.w3.org/1999/xlink">
 <defs>
  <style type="text/css">
   <![CDATA[
    .fil0 {fill:#00BC49}
    .fil1 {fill:#00BC49;fill-rule:nonzero}
   ]]>
  </style>
 </defs>
 <g id="Layer_x0020_1">
  <metadata id="CorelCorpID_0Corel-Layer"/>
  <g id="_511741640">
   <g>
    <path class="fil0" d="M156 130l12 -42c5,-19 -4,-39 -21,-49l-59 -33c-17,-10 -38,-7 -52,7l-30 32c-8,10 -8,24 0,33l1 1c8,8 21,10 30,4l14 -7c4,-2 9,-2 13,0l36 20c4,2 6,7 6,11l1 15c0,12 9,22 20,24l1 0c12,3 24,-4 28,-16zm-80 -78l-12 -7 -7 12 -11 -6 7 -12 -12 -7 6 -11 12 7 7 -12 11 6 -7 12 12 7 -6 11zm68 5c4,2 5,7 3,10 -2,4 -6,5 -10,3 -4,-2 -5,-7 -3,-10 2,-4 7,-5 10,-3zm-28 19c-4,-2 -5,-7 -3,-10 2,-4 7,-5 10,-3 4,2 5,6 3,10 -2,4 -7,5 -10,3zm6 21c-4,-2 -5,-7 -3,-10 2,-4 7,-5 10,-3 4,2 5,6 3,10 -2,4 -7,5 -10,3zm21 -6c-4,-2 -5,-7 -3,-10 2,-4 7,-5 10,-3 4,2 5,7 3,10 -2,4 -7,5 -10,3z"/>
   </g>
  </g>
  <path class="fil0" d="M277 185l0 94c0,17 -14,30 -30,30 -17,0 -30,-13 -30,-30 0,-16 13,-30 30,-30 7,0 13,3 18,7l0 -50 -77 22 0 67c0,17 -13,30 -30,30 -16,0 -30,-13 -30,-30 0,-16 14,-30 30,-30 7,0 13,3 18,7l0 -74c0,-12 8,-22 20,-25l48 -13c10,-3 18,-2 24,3 6,4 9,12 9,22z"/>
  <polygon class="fil1" points="268,85 277,65 252,30 252,29 294,23 303,3 237,14 230,30 "/>
  <polygon id="1" class="fil1" points="279,118 298,126 391,29 372,20 "/>
  <polygon id="2" class="fil1" points="374,128 440,117 447,102 409,46 400,67 425,101 425,102 383,108 "/>
 </g>
</svg>
